<svg xmlns="http://www.w3.org/2000/svg" width="2252" height="298" viewBox="0 0 2252 298" font-family="-apple-system,Segoe UI,Roboto,Helvetica,Arial,sans-serif"><rect x="0" y="0" width="2252" height="298" fill="#ffffff"/><line x1="238" y1="47" x2="298" y2="47" stroke="#777" stroke-width="1.4" marker-end="url(#arrow)"/><line x1="518" y1="47" x2="578" y2="47" stroke="#777" stroke-width="1.4" marker-end="url(#arrow)"/><line x1="798" y1="47" x2="858" y2="47" stroke="#777" stroke-width="1.4" marker-end="url(#arrow)"/><text x="832" y="43" font-size="10" fill="#555">mechanical</text><line x1="798" y1="47" x2="858" y2="131" stroke="#777" stroke-width="1.4" marker-end="url(#arrow)"/><text x="832" y="85" font-size="10" fill="#555">judgment</text><line x1="798" y1="47" x2="858" y2="131" stroke="#777" stroke-width="1.4" marker-end="url(#arrow)"/><text x="832" y="85" font-size="10" fill="#555">default</text><line x1="1078" y1="47" x2="1138" y2="47" stroke="#777" stroke-width="1.4" marker-end="url(#arrow)"/><line x1="1078" y1="131" x2="1138" y2="47" stroke="#777" stroke-width="1.4" marker-end="url(#arrow)"/><line x1="1358" y1="47" x2="1418" y2="47" stroke="#777" stroke-width="1.4" marker-end="url(#arrow)"/><line x1="1638" y1="47" x2="1698" y2="47" stroke="#777" stroke-width="1.4" marker-end="url(#arrow)"/><line x1="1918" y1="47" x2="1978" y2="215" stroke="#777" stroke-width="1.4" marker-end="url(#arrow)"/><text x="1952" y="127" font-size="10" fill="#555">pass</text><line x1="1918" y1="47" x2="1978" y2="47" stroke="#777" stroke-width="1.4" marker-end="url(#arrow)"/><text x="1952" y="43" font-size="10" fill="#555">fix</text><line x1="1918" y1="47" x2="1978" y2="131" stroke="#777" stroke-width="1.4" marker-end="url(#arrow)"/><text x="1952" y="85" font-size="10" fill="#555">default+exhaust</text><line x1="2198" y1="47" x2="1698" y2="47" stroke="#777" stroke-width="1.4" marker-end="url(#arrow)"/><line x1="2198" y1="131" x2="578" y2="47" stroke="#777" stroke-width="1.4" marker-end="url(#arrow)"/><defs><marker id="arrow" viewBox="0 0 10 10" refX="9" refY="5" markerWidth="7" markerHeight="7" orient="auto-start-reverse"><path d="M0,0 L10,5 L0,10 z" fill="#777"/></marker></defs><rect x="18" y="18" width="220" height="58" rx="8" fill="#7fb3d5" stroke="#666" stroke-width="1.2"/><text x="28" y="38" font-size="12" font-weight="bold" fill="#000">explore</text><text x="28" y="54" font-size="10" fill="#444">parallel</text><text x="28" y="68" font-size="9" fill="#555" font-family="monospace">parallel</text><rect x="298" y="18" width="220" height="58" rx="8" fill="#f9e79f" stroke="#666" stroke-width="1.2"/><text x="308" y="38" font-size="12" font-weight="bold" fill="#000">plan</text><text x="308" y="54" font-size="10" fill="#444">llm:planner</text><text x="308" y="68" font-size="9" fill="#555" font-family="monospace">llm:planner</text><rect x="578" y="18" width="220" height="58" rx="8" fill="#e4717a" stroke="#666" stroke-width="1.2"/><text x="588" y="38" font-size="12" font-weight="bold" fill="#000">route</text><text x="588" y="54" font-size="10" fill="#444">choice</text><text x="588" y="68" font-size="9" fill="#555" font-family="monospace">choice</text><rect x="858" y="18" width="220" height="58" rx="8" fill="#a9dfbf" stroke="#666" stroke-width="1.2"/><text x="868" y="38" font-size="12" font-weight="bold" fill="#000">implement_sidekick</text><text x="868" y="54" font-size="10" fill="#444">llm:sidekick</text><text x="868" y="68" font-size="9" fill="#555" font-family="monospace">llm:sidekick</text><rect x="858" y="102" width="220" height="58" rx="8" fill="#f9e79f" stroke="#666" stroke-width="1.2"/><text x="868" y="122" font-size="12" font-weight="bold" fill="#000">implement_frontier</text><text x="868" y="138" font-size="10" fill="#444">llm:writer</text><text x="868" y="152" font-size="9" fill="#555" font-family="monospace">llm:writer</text><rect x="1138" y="18" width="220" height="58" rx="8" fill="#f9e79f" stroke="#666" stroke-width="1.2"/><text x="1148" y="38" font-size="12" font-weight="bold" fill="#000">review</text><text x="1148" y="54" font-size="10" fill="#444">llm:reviewer</text><text x="1148" y="68" font-size="9" fill="#555" font-family="monospace">llm:reviewer</text><rect x="1418" y="18" width="220" height="58" rx="8" fill="#d5d8dc" stroke="#666" stroke-width="1.2"/><text x="1428" y="38" font-size="12" font-weight="bold" fill="#000">verify</text><text x="1428" y="54" font-size="10" fill="#444">tool</text><text x="1428" y="68" font-size="9" fill="#555" font-family="monospace">tool</text><rect x="1698" y="18" width="220" height="58" rx="8" fill="#e4717a" stroke="#666" stroke-width="1.2"/><text x="1708" y="38" font-size="12" font-weight="bold" fill="#000">quality_gate</text><text x="1708" y="54" font-size="10" fill="#444">choice</text><text x="1708" y="68" font-size="9" fill="#555" font-family="monospace">choice</text><rect x="1978" y="18" width="220" height="58" rx="8" fill="#e8a0c8" stroke="#666" stroke-width="1.2"/><text x="1988" y="38" font-size="12" font-weight="bold" fill="#000">fix</text><text x="1988" y="54" font-size="10" fill="#444">fix_attempt</text><text x="1988" y="68" font-size="9" fill="#555" font-family="monospace">fix_attempt</text><rect x="1978" y="102" width="220" height="58" rx="8" fill="#f9e79f" stroke="#666" stroke-width="1.2"/><text x="1988" y="122" font-size="12" font-weight="bold" fill="#000">replan</text><text x="1988" y="138" font-size="10" fill="#444">llm:planner</text><text x="1988" y="152" font-size="9" fill="#555" font-family="monospace">llm:planner</text><rect x="1978" y="186" width="220" height="58" rx="8" fill="#f9e79f" stroke="#666" stroke-width="1.2"/><text x="1988" y="206" font-size="12" font-weight="bold" fill="#000">report</text><text x="1988" y="222" font-size="10" fill="#444">llm:planner</text><text x="1988" y="236" font-size="9" fill="#555" font-family="monospace">llm:planner</text></svg>
